# Blender 4.2.3 LTS
# www.blender.org
mtllib AirFryer.mtl
o Cylinder
v 0.000000 -0.100000 -0.074738
v 0.000000 0.100000 -0.056257
v 0.052848 -0.100000 -0.052848
v 0.039780 0.100000 -0.039780
v 0.074738 -0.100000 0.000000
v 0.056257 0.100000 0.000000
v 0.052848 -0.100000 0.052848
v 0.039780 0.100000 0.039780
v 0.000000 -0.100000 0.074738
v 0.000000 0.100000 0.056257
v -0.052848 -0.100000 0.052848
v -0.039780 0.100000 0.039780
v -0.074738 -0.100000 0.000000
v -0.056257 0.100000 0.000000
v -0.052848 -0.100000 -0.052848
v -0.039780 0.100000 -0.039780
v 0.000000 -0.033333 -0.100000
v 0.000000 0.064796 -0.082049
v 0.058017 0.064796 -0.058017
v 0.070711 -0.033333 -0.070711
v 0.073369 0.057299 0.024265
v 0.077183 0.036452 0.024265
v 0.069038 0.057299 0.034722
v 0.071734 0.036452 0.037419
v 0.000000 0.064796 0.082049
v 0.000000 -0.033333 0.100000
v -0.058017 0.064796 0.058017
v -0.070711 -0.033333 0.070711
v -0.082049 0.064796 0.000000
v -0.100000 -0.033333 0.000000
v -0.058017 0.064796 -0.058017
v -0.070711 -0.033333 -0.070711
v 0.082049 0.064796 0.000000
v 0.100000 -0.033333 0.000000
v 0.058017 0.064796 0.058017
v 0.070711 -0.033333 0.070711
v 0.088390 0.052105 0.030487
v 0.092204 0.039200 0.030487
v 0.084059 0.052105 0.040944
v 0.086755 0.039200 0.043640
v 0.076548 0.058673 0.037833
v 0.080880 0.058673 0.027376
v 0.079245 0.037826 0.040529
v 0.084693 0.037826 0.027376
v 0.096097 0.001485 0.034434
v 0.092300 0.001485 0.043603
v 0.087065 0.000527 0.041434
v 0.090862 0.000527 0.032266
vn 0.3169 0.5605 -0.7651
vn 0.7651 0.5605 -0.3169
vn 0.7651 0.5605 0.3169
vn 0.3169 0.5605 0.7651
vn -0.3169 0.5605 0.7651
vn -0.7651 0.5605 0.3169
vn -0.0000 1.0000 -0.0000
vn -0.7651 0.5605 -0.3169
vn -0.3169 0.5605 -0.7651
vn -0.0000 -1.0000 -0.0000
vn -0.3612 -0.3304 -0.8720
vn -0.3773 0.1666 -0.9110
vn -0.8720 -0.3304 -0.3612
vn -0.9110 0.1666 -0.3773
vn -0.8720 -0.3304 0.3612
vn -0.9110 0.1666 0.3773
vn -0.3612 -0.3304 0.8720
vn -0.3773 0.1666 0.9110
vn 0.3612 -0.3304 0.8720
vn 0.3773 0.1666 0.9110
vn 0.8720 -0.3304 0.3612
vn 0.5806 0.7779 0.2405
vn 0.8720 -0.3304 -0.3612
vn 0.9110 0.1666 -0.3773
vn 0.3612 -0.3304 -0.8720
vn 0.3773 0.1666 -0.9110
vn 0.9110 0.1666 0.3773
vn 0.8913 0.2634 0.3692
vn -0.3537 0.0922 0.9308
vn -0.3734 -0.0558 0.9260
vn 0.4081 0.0922 -0.9083
vn 0.3712 0.0679 -0.9261
vn 0.1540 -0.9860 0.0638
vn -0.3924 0.0679 0.9173
vn -0.1540 0.9860 -0.0638
vn 0.9155 0.1342 0.3792
vn -0.9054 -0.1989 -0.3750
vn 0.3908 -0.0558 -0.9188
vt 1.000000 0.911989
vt 1.000000 1.000000
vt 0.875000 1.000000
vt 0.875000 0.911989
vt 0.750000 1.000000
vt 0.750000 0.911989
vt 0.625000 1.000000
vt 0.625000 0.911989
vt 0.500000 1.000000
vt 0.500000 0.911989
vt 0.375000 1.000000
vt 0.375000 0.911989
vt 0.250000 1.000000
vt 0.250000 0.911989
vt 0.419706 0.419706
vt 0.250000 0.490000
vt 0.080294 0.419706
vt 0.010000 0.250000
vt 0.080294 0.080294
vt 0.250000 0.010000
vt 0.419706 0.080294
vt 0.490000 0.250000
vt 0.125000 1.000000
vt 0.125000 0.911989
vt 0.000000 1.000000
vt 0.000000 0.911989
vt 0.750000 0.490000
vt 0.919706 0.419706
vt 0.990000 0.250000
vt 0.919706 0.080294
vt 0.750000 0.010000
vt 0.580294 0.080294
vt 0.510000 0.250000
vt 0.580294 0.419706
vt 0.125000 0.500000
vt 0.125000 0.666667
vt 0.000000 0.666667
vt 0.000000 0.500000
vt 0.250000 0.500000
vt 0.250000 0.666667
vt 0.375000 0.500000
vt 0.375000 0.666667
vt 0.500000 0.500000
vt 0.500000 0.666667
vt 0.625000 0.500000
vt 0.625000 0.666667
vt 0.750000 0.500000
vt 0.750000 0.666667
vt 0.727075 0.882506
vt 0.647925 0.882506
vt 0.875000 0.500000
vt 0.875000 0.666667
vt 1.000000 0.500000
vt 1.000000 0.666667
vt 0.729727 0.696149
vt 0.645273 0.696149
s 0
f 18/1/1 2/2/1 4/3/1 19/4/1
f 19/4/2 4/3/2 6/5/2 33/6/2
f 33/6/3 6/5/3 8/7/3 35/8/3
f 35/8/4 8/7/4 10/9/4 25/10/4
f 25/10/5 10/9/5 12/11/5 27/12/5
f 27/12/6 12/11/6 14/13/6 29/14/6
f 4/15/7 2/16/7 16/17/7 14/18/7 12/19/7 10/20/7 8/21/7 6/22/7
f 29/14/8 14/13/8 16/23/8 31/24/8
f 31/24/9 16/23/9 2/25/9 18/26/9
f 1/27/10 3/28/10 5/29/10 7/30/10 9/31/10 11/32/10 13/33/10 15/34/10
f 15/35/11 32/36/11 17/37/11 1/38/11
f 32/36/12 31/24/12 18/26/12 17/37/12
f 13/39/13 30/40/13 32/36/13 15/35/13
f 30/40/14 29/14/14 31/24/14 32/36/14
f 11/41/15 28/42/15 30/40/15 13/39/15
f 28/42/16 27/12/16 29/14/16 30/40/16
f 9/43/17 26/44/17 28/42/17 11/41/17
f 26/44/18 25/10/18 27/12/18 28/42/18
f 7/45/19 36/46/19 26/44/19 9/43/19
f 36/46/20 35/8/20 25/10/20 26/44/20
f 5/47/21 34/48/21 36/46/21 7/45/21
f 42/49/22 41/50/22 39/50/22 37/49/22
f 3/51/23 20/52/23 34/48/23 5/47/23
f 20/52/24 19/4/24 33/6/24 34/48/24
f 1/53/25 17/54/25 20/52/25 3/51/25
f 17/54/26 18/1/26 19/4/26 20/52/26
f 21/49/27 22/55/27 34/48/27 33/6/27
f 24/56/27 23/50/27 35/8/27 36/46/27
f 22/55/27 24/56/27 36/46/27 34/48/27
f 23/50/27 21/49/27 33/6/27 35/8/27
f 38/55/28 37/49/28 39/50/28 40/56/28
f 41/50/29 43/56/29 40/56/29 39/50/29
f 40/56/30 43/56/30 47/56/30 46/56/30
f 44/55/31 42/49/31 37/49/31 38/55/31
f 22/55/32 21/49/32 42/49/32 44/55/32
f 24/56/33 22/55/33 44/55/33 43/56/33
f 23/50/34 24/56/34 43/56/34 41/50/34
f 21/49/35 23/50/35 41/50/35 42/49/35
f 47/56/33 48/55/33 45/55/33 46/56/33
f 38/55/36 40/56/36 46/56/36 45/55/36
f 43/56/37 44/55/37 48/55/37 47/56/37
f 44/55/38 38/55/38 45/55/38 48/55/38
