# Blender 4.3.0
# www.blender.org
o lights
v 0.500000 -0.707107 -0.500000
v 0.000000 -0.707107 -0.707107
v -0.500000 -0.707107 -0.500000
v -0.707107 -0.707107 0.000000
v -0.500000 -0.707107 0.500000
v 0.000000 -0.707107 0.707107
v 0.500000 -0.707107 0.500000
v 0.707107 -0.707107 0.000000
v 0.653281 -0.382683 -0.653281
v 0.000000 -0.382683 -0.923879
v -0.653281 -0.382683 -0.653281
v -0.923879 -0.382683 0.000000
v -0.653281 -0.382683 0.653281
v 0.000000 -0.382683 0.923879
v 0.653281 -0.382683 0.653281
v 0.923880 -0.382683 0.000000
v 0.707107 -0.000000 -0.707107
v 0.000000 -0.000000 -1.000000
v -0.707107 -0.000000 -0.707107
v -1.000000 0.000000 0.000000
v -0.707107 0.000000 0.707107
v 0.000000 0.000000 1.000000
v 0.707107 0.000000 0.707107
v 1.000000 0.000000 0.000000
v 0.653281 0.382683 -0.653281
v 0.000000 0.382683 -0.923879
v -0.653281 0.382683 -0.653281
v -0.923879 0.382683 -0.000000
v -0.653281 0.382683 0.653281
v 0.000000 0.382683 0.923879
v 0.653281 0.382683 0.653281
v 0.923880 0.382683 -0.000000
v 0.500000 0.707107 -0.500000
v 0.000000 0.707107 -0.707107
v -0.500000 0.707107 -0.500000
v -0.707107 0.707107 -0.000000
v -0.500000 0.707107 0.500000
v 0.000000 0.707107 0.707107
v 0.500000 0.707107 0.500000
v 0.707107 0.707107 -0.000000
v 0.270598 0.923880 -0.270598
v 0.000000 0.923880 -0.382683
v -0.270598 0.923880 -0.270598
v -0.382683 0.923880 -0.000000
v -0.270598 0.923880 0.270598
v 0.000000 0.923880 0.382683
v 0.270598 0.923880 0.270598
v 0.382683 0.923880 -0.000000
v 0.000000 1.000000 -0.000000
v 0.000000 -0.872978 -0.543515
v 0.384323 -0.872978 -0.384323
v -0.384323 -0.872978 -0.384323
v -0.543515 -0.872978 0.000000
v -0.384323 -0.872978 0.384323
v 0.000000 -0.872978 0.543515
v 0.384323 -0.872978 0.384323
v 0.543515 -0.872978 0.000000
v 0.000000 -1.051800 -0.416358
v 0.294410 -1.051800 -0.294410
v -0.294410 -1.051800 -0.294410
v -0.416358 -1.051800 0.000000
v -0.294410 -1.051800 0.294410
v 0.000000 -1.051800 0.416358
v 0.294410 -1.051800 0.294410
v 0.416358 -1.051800 0.000000
v 0.000000 -1.492350 -0.374823
v 0.265040 -1.492350 -0.265040
v -0.265040 -1.492350 -0.265040
v -0.374823 -1.492350 0.000000
v -0.265040 -1.492350 0.265040
v 0.000000 -1.492350 0.374823
v 0.265040 -1.492350 0.265040
v 0.374823 -1.492350 0.000000
v 0.374360 -2.503187 -0.374360
v 0.000000 -2.503187 -0.529426
v -0.374360 -2.503187 -0.374360
v -0.529426 -2.503187 0.000000
v -0.374360 -2.503187 0.374360
v 0.000000 -2.503187 0.529426
v 0.374360 -2.503187 0.374360
v 0.529426 -2.503187 0.000000
v 0.374360 -1.444335 -0.374360
v 0.000000 -1.444335 -0.529426
v -0.374360 -1.444335 -0.374360
v -0.529426 -1.444335 0.000000
v -0.374360 -1.444335 0.374360
v 0.000000 -1.444335 0.529426
v 0.374360 -1.444335 0.374360
v 0.529426 -1.444335 0.000000
v 0.452696 -1.200017 -0.452696
v 0.000000 -1.200017 -0.640210
v -0.452696 -1.200017 -0.452696
v -0.640210 -1.200017 0.000000
v -0.452696 -1.200017 0.452696
v 0.000000 -1.200017 0.640210
v 0.452696 -1.200017 0.452696
v 0.640210 -1.200017 0.000000
v 0.318233 -2.628648 -0.318233
v 0.000000 -2.628648 -0.450050
v 0.000000 -2.628648 0.000000
v -0.318233 -2.628648 -0.318233
v -0.450050 -2.628648 0.000000
v -0.318233 -2.628648 0.318233
v 0.000000 -2.628648 0.450050
v 0.318233 -2.628648 0.318233
v 0.450050 -2.628648 0.000000
v 0.000000 -1.320081 -0.575124
v 0.406674 -1.320081 -0.406674
v 0.575124 -1.320081 0.000000
v 0.406674 -1.320081 0.406674
v 0.000000 -1.320081 0.575124
v -0.406674 -1.320081 0.406674
v -0.575124 -1.320081 0.000000
v -0.406674 -1.320081 -0.406674
v 0.000000 -1.170562 -0.585874
v 0.414275 -1.170562 -0.414276
v 0.585874 -1.170562 0.000000
v 0.414275 -1.170562 0.414275
v 0.000000 -1.170562 0.585874
v -0.414275 -1.170562 0.414276
v -0.585874 -1.170562 0.000000
v -0.414275 -1.170562 -0.414275
vn 0.3256 -0.5253 -0.7862
vn -0.3256 -0.5253 -0.7862
vn -0.7862 -0.5253 -0.3256
vn -0.7862 -0.5253 0.3256
vn -0.3256 -0.5253 0.7862
vn 0.3256 -0.5253 0.7862
vn 0.7862 -0.5253 0.3256
vn 0.7862 -0.5253 -0.3256
vn 0.3764 -0.1807 -0.9087
vn -0.3764 -0.1807 -0.9087
vn -0.9087 -0.1807 -0.3764
vn -0.9087 -0.1807 0.3764
vn -0.3764 -0.1807 0.9087
vn 0.3764 -0.1807 0.9087
vn 0.9087 -0.1807 0.3764
vn 0.9087 -0.1807 -0.3764
vn 0.3764 0.1807 -0.9087
vn -0.3764 0.1807 -0.9087
vn -0.9087 0.1807 -0.3764
vn -0.9087 0.1807 0.3764
vn -0.3764 0.1807 0.9087
vn 0.3764 0.1807 0.9087
vn 0.9087 0.1807 0.3764
vn 0.9087 0.1807 -0.3764
vn 0.3256 0.5253 -0.7862
vn -0.3256 0.5253 -0.7862
vn -0.7862 0.5253 -0.3256
vn -0.7862 0.5253 0.3256
vn -0.3256 0.5253 0.7862
vn 0.3256 0.5253 0.7862
vn 0.7862 0.5253 0.3256
vn 0.7862 0.5253 -0.3256
vn 0.2243 0.8103 -0.5414
vn -0.2243 0.8103 -0.5414
vn -0.5414 0.8103 -0.2243
vn -0.5414 0.8103 0.2243
vn -0.2243 0.8103 0.5414
vn 0.2243 0.8103 0.5414
vn 0.5414 0.8103 0.2243
vn 0.5414 0.8103 -0.2243
vn 0.0805 0.9776 -0.1945
vn -0.0805 0.9776 -0.1945
vn -0.1945 0.9776 -0.0805
vn -0.1945 0.9776 0.0805
vn -0.0805 0.9776 0.1945
vn 0.0805 0.9776 0.1945
vn 0.1945 0.9776 0.0805
vn 0.1945 0.9776 -0.0805
vn 0.2829 -0.6735 -0.6829
vn -0.2829 -0.6735 -0.6829
vn -0.6829 -0.6735 -0.2829
vn -0.6829 -0.6735 0.2829
vn -0.2829 -0.6735 0.6829
vn 0.2829 -0.6735 0.6829
vn 0.6829 -0.6735 0.2829
vn 0.6829 -0.6735 -0.2829
vn 0.3198 -0.5491 -0.7722
vn -0.3198 -0.5491 -0.7722
vn -0.7722 -0.5491 -0.3198
vn -0.7722 -0.5491 0.3198
vn -0.3198 -0.5491 0.7722
vn 0.3198 -0.5491 0.7722
vn 0.7722 -0.5491 0.3198
vn 0.7722 -0.5491 -0.3198
vn 0.3812 -0.0868 -0.9204
vn -0.3812 -0.0868 -0.9204
vn -0.9204 -0.0868 -0.3812
vn -0.9204 -0.0868 0.3812
vn -0.3812 -0.0868 0.9204
vn 0.3812 -0.0868 0.9204
vn 0.9204 -0.0868 0.3812
vn 0.9204 -0.0868 -0.3812
vn 0.3827 -0.0000 -0.9239
vn -0.3827 -0.0000 -0.9239
vn -0.9239 -0.0000 -0.3827
vn -0.9239 -0.0000 0.3827
vn -0.3827 -0.0000 0.9239
vn 0.3827 -0.0000 0.9239
vn 0.9239 -0.0000 0.3827
vn 0.9239 -0.0000 -0.3827
vn -0.0000 -1.0000 -0.0000
vn 0.3623 -0.3217 -0.8748
vn -0.3623 -0.3217 -0.8748
vn -0.8748 -0.3217 -0.3623
vn -0.8748 -0.3217 0.3623
vn -0.3623 -0.3217 0.8748
vn 0.3623 -0.3217 0.8748
vn 0.8748 -0.3217 0.3623
vn 0.8748 -0.3217 -0.3623
vn 0.3304 -0.5046 -0.7976
vn -0.3304 -0.5046 -0.7976
vn -0.7976 -0.5046 -0.3304
vn -0.7976 -0.5046 0.3304
vn -0.3304 -0.5046 0.7976
vn 0.3304 -0.5046 0.7976
vn 0.7976 -0.5046 0.3304
vn 0.7976 -0.5046 -0.3304
vn 0.3422 -0.4478 -0.8261
vn 0.8261 -0.4478 -0.3422
vn 0.8261 -0.4478 0.3422
vn 0.3422 -0.4478 0.8261
vn -0.3422 -0.4478 0.8261
vn -0.8261 -0.4478 0.3422
vn -0.8261 -0.4478 -0.3422
vn -0.3422 -0.4478 -0.8261
vn 0.1937 0.8625 -0.4675
vn 0.1937 0.8625 -0.4676
vn 0.4676 0.8625 -0.1937
vn 0.4675 0.8625 -0.1937
vn 0.4675 0.8625 0.1937
vn 0.1937 0.8625 0.4675
vn -0.1937 0.8625 0.4675
vn -0.1937 0.8625 0.4676
vn -0.4676 0.8625 0.1937
vn -0.4675 0.8625 0.1937
vn -0.4675 0.8625 -0.1937
vn -0.1937 0.8625 -0.4676
vn -0.1937 0.8625 -0.4675
vn 0.4676 0.8625 0.1937
vn -0.4676 0.8625 -0.1937
vt 0.301102 0.575622
vt 0.184003 0.639277
vt 0.195665 0.567188
vt 0.418207 0.640596
vt 0.300656 0.644375
vt 0.527963 0.525788
vt 0.407058 0.567939
vt 0.199750 0.563306
vt 0.037128 0.608735
vt 0.085143 0.520922
vt 0.303990 0.572950
vt 0.187785 0.635207
vt 0.420230 0.637825
vt 0.303229 0.641255
vt 0.528254 0.523898
vt 0.409021 0.565659
vt 0.076182 0.524732
vt 0.033665 0.618562
vt 0.300172 0.703259
vt 0.184767 0.707239
vt 0.584518 0.724355
vt 0.416584 0.709019
vt 0.019972 0.710932
vt 0.302373 0.700021
vt 0.186976 0.702539
vt 0.584322 0.718939
vt 0.419140 0.706091
vt 0.019775 0.719999
vt 0.192056 0.772480
vt 0.301427 0.760827
vt 0.408820 0.773286
vt 0.192922 0.768086
vt 0.047562 0.810704
vt 0.303151 0.757754
vt 0.412042 0.770980
vt 0.049328 0.817841
vt 0.301151 0.821387
vt 0.212629 0.836600
vt 0.553147 0.823811
vt 0.389687 0.837204
vt 0.104621 0.899122
vt 0.302193 0.818720
vt 0.212483 0.832986
vt 0.496695 0.903056
vt 0.391127 0.835057
vt 0.107563 0.903822
vt 0.245294 0.905529
vt 0.356652 0.905261
vt 0.301116 0.889084
vt 0.489289 0.902911
vt 0.244388 0.903510
vt 0.195832 0.954798
vt 0.357834 0.904682
vt 0.301372 0.887556
vt 0.198526 0.956849
vt 0.301527 0.979352
vt 0.402633 0.954824
vt 0.300427 0.979954
vt 0.405158 0.956629
vt 0.301284 0.527257
vt 0.395345 0.519125
vt 0.491085 0.476523
vt 0.120635 0.474002
vt 0.212023 0.516047
vt 0.304391 0.525204
vt 0.397436 0.517363
vt 0.491889 0.475320
vt 0.112840 0.476054
vt 0.207577 0.518711
vt 0.221449 0.466458
vt 0.301354 0.476952
vt 0.381577 0.466540
vt 0.456452 0.431240
vt 0.154231 0.430638
vt 0.225941 0.465085
vt 0.304583 0.475582
vt 0.383868 0.465430
vt 0.457741 0.430638
vt 0.147313 0.431239
vt 0.505818 0.144279
vt 0.414056 0.202377
vt 0.416144 0.144279
vt 0.414056 0.086180
vt 0.503498 0.079742
vt 0.496551 0.015539
vt 0.407802 0.028382
vt 0.495949 0.272626
vt 0.413454 0.201985
vt 0.502896 0.208423
vt 0.505216 0.143886
vt 0.415542 0.143886
vt 0.413454 0.085788
vt 0.502896 0.079350
vt 0.495949 0.015146
vt 0.407200 0.027989
vt 0.496551 0.273019
vt 0.503498 0.208815
vt 0.223716 0.135589
vt 0.124735 0.323357
vt 0.161174 0.117861
vt 0.288481 0.129063
vt 0.215203 0.328867
vt 0.365518 0.094220
vt 0.301883 0.328802
vt 0.161567 0.117259
vt 0.029197 0.309530
vt 0.091772 0.069868
vt 0.224109 0.134987
vt 0.125127 0.322755
vt 0.288874 0.128461
vt 0.215595 0.328265
vt 0.365910 0.093618
vt 0.302276 0.328200
vt 0.028804 0.310132
vt 0.091380 0.070470
vt 0.225820 0.111656
vt 0.173518 0.094814
vt 0.234036 0.017287
vt 0.280282 0.104168
vt 0.343005 0.065425
vt 0.173911 0.094212
vt 0.118841 0.045366
vt 0.234429 0.016686
vt 0.226212 0.111054
vt 0.280675 0.103566
vt 0.343398 0.064823
vt 0.118449 0.045968
vt 0.214607 0.355031
vt 0.122402 0.352710
vt 0.393478 0.351254
vt 0.302425 0.356281
vt 0.020741 0.339787
vt 0.215000 0.354429
vt 0.122795 0.352108
vt 0.393870 0.350652
vt 0.302818 0.355679
vt 0.020349 0.340389
vt 0.120728 0.380083
vt 0.010447 0.377034
vt 0.303172 0.381011
vt 0.215064 0.384644
vt 0.121121 0.379481
vt 0.010840 0.376432
vt 0.302780 0.381613
vt 0.214671 0.385246
vt 0.120216 0.393692
vt 0.015651 0.393041
vt 0.394494 0.397082
vt 0.399959 0.383326
vt 0.215068 0.397082
vt 0.120608 0.393090
vt 0.016044 0.392439
vt 0.394101 0.397683
vt 0.399567 0.383928
vt 0.214675 0.397684
vt 0.570812 0.620899
vt 0.570526 0.617542
vt 0.554916 0.816682
vt 0.407200 0.259783
vt 0.407802 0.260176
vt 0.388182 0.323968
vt 0.388575 0.323366
vt 0.303192 0.392135
vt 0.302799 0.392737
s 1
f 2/1/1 9/2/1 1/3/1
f 2/1/2 11/4/2 10/5/2
f 4/6/3 11/4/3 3/7/3
f 5/8/4 12/9/4 4/10/4
f 6/11/5 13/12/5 5/8/5
f 6/11/6 15/13/6 14/14/6
f 8/15/7 15/13/7 7/16/7
f 8/17/8 9/2/8 16/18/8
f 9/2/9 18/19/9 17/20/9
f 11/4/10 18/19/10 10/5/10
f 11/4/11 20/21/11 19/22/11
f 13/12/12 20/23/12 12/9/12
f 13/12/13 22/24/13 21/25/13
f 15/13/14 22/24/14 14/14/14
f 15/13/15 24/26/15 23/27/15
f 9/2/16 24/28/16 16/18/16
f 18/19/17 25/29/17 17/20/17
f 19/22/18 26/30/18 18/19/18
f 20/21/19 27/31/19 19/22/19
f 20/23/20 29/32/20 28/33/20
f 22/24/21 29/32/21 21/25/21
f 23/27/22 30/34/22 22/24/22
f 24/26/23 31/35/23 23/27/23
f 24/28/24 25/29/24 32/36/24
f 25/29/25 34/37/25 33/38/25
f 27/31/26 34/37/26 26/30/26
f 28/39/27 35/40/27 27/31/27
f 29/32/28 36/41/28 28/33/28
f 29/32/29 38/42/29 37/43/29
f 31/35/30 38/42/30 30/34/30
f 31/35/31 40/44/31 39/45/31
f 25/29/32 40/46/32 32/36/32
f 34/37/33 41/47/33 33/38/33
f 34/37/34 43/48/34 42/49/34
f 36/50/35 43/48/35 35/40/35
f 36/41/36 45/51/36 44/52/36
f 38/42/37 45/51/37 37/43/37
f 38/42/38 47/53/38 46/54/38
f 40/44/39 47/53/39 39/45/39
f 40/46/40 41/47/40 48/55/40
f 41/47/41 42/49/41 49/56/41
f 42/49/42 43/48/42 49/56/42
f 43/48/43 44/57/43 49/56/43
f 44/52/44 45/51/44 49/58/44
f 45/51/45 46/54/45 49/58/45
f 46/54/46 47/53/46 49/58/46
f 47/53/47 48/59/47 49/58/47
f 48/55/48 41/47/48 49/56/48
f 1/3/49 50/60/49 2/1/49
f 3/7/50 50/60/50 52/61/50
f 3/7/51 53/62/51 4/6/51
f 5/8/52 53/63/52 54/64/52
f 5/8/53 55/65/53 6/11/53
f 7/16/54 55/65/54 56/66/54
f 7/16/55 57/67/55 8/15/55
f 1/3/56 57/68/56 51/69/56
f 50/60/57 59/70/57 58/71/57
f 50/60/58 60/72/58 52/61/58
f 52/61/59 61/73/59 53/62/59
f 54/64/60 61/74/60 62/75/60
f 55/65/61 62/75/61 63/76/61
f 55/65/62 64/77/62 56/66/62
f 56/66/63 65/78/63 57/67/63
f 51/69/64 65/79/64 59/70/64
f 58/80/65 67/81/65 66/82/65
f 58/80/66 68/83/66 60/84/66
f 61/85/67 68/83/67 69/86/67
f 61/87/68 70/88/68 62/89/68
f 63/90/69 70/88/69 71/91/69
f 63/90/70 72/92/70 64/93/70
f 65/94/71 72/92/71 73/95/71
f 65/96/72 67/81/72 59/97/72
f 75/98/73 82/99/73 74/100/73
f 76/101/74 83/102/74 75/98/74
f 77/103/75 84/104/75 76/101/75
f 78/105/76 85/106/76 77/107/76
f 79/108/77 86/109/77 78/105/77
f 80/110/78 87/111/78 79/108/78
f 81/112/79 88/113/79 80/110/79
f 74/100/80 89/114/80 81/115/80
f 99/116/81 98/117/81 100/118/81
f 101/119/81 99/116/81 100/118/81
f 102/120/81 101/119/81 100/118/81
f 103/121/81 102/122/81 100/123/81
f 104/124/81 103/121/81 100/123/81
f 105/125/81 104/124/81 100/123/81
f 106/126/81 105/125/81 100/123/81
f 98/117/81 106/127/81 100/118/81
f 82/99/82 107/128/82 108/129/82
f 84/104/83 107/128/83 83/102/83
f 84/104/84 113/130/84 114/131/84
f 86/109/85 113/132/85 85/106/85
f 86/109/86 111/133/86 112/134/86
f 88/113/87 111/133/87 87/111/87
f 88/113/88 109/135/88 110/136/88
f 82/99/89 109/137/89 89/114/89
f 74/100/90 99/116/90 75/98/90
f 76/101/91 99/116/91 101/119/91
f 76/101/92 102/120/92 77/103/92
f 78/105/93 102/122/93 103/121/93
f 78/105/94 104/124/94 79/108/94
f 80/110/95 104/124/95 105/125/95
f 80/110/96 106/126/96 81/112/96
f 74/100/97 106/127/97 98/117/97
f 107/128/98 90/138/98 108/129/98
f 109/137/99 90/138/99 97/139/99
f 109/135/100 96/140/100 110/136/100
f 111/133/101 96/140/101 95/141/101
f 111/133/102 94/142/102 112/134/102
f 113/132/103 94/142/103 93/143/103
f 113/130/104 92/144/104 114/131/104
f 107/128/105 92/144/105 91/145/105
f 91/145/106 116/146/107 90/138/107
f 90/138/108 117/147/109 97/139/109
f 117/148/110 96/140/110 97/149/110
f 96/140/111 119/150/111 95/141/111
f 95/141/112 120/151/113 94/142/113
f 94/142/114 121/152/115 93/143/115
f 121/153/116 92/144/116 93/154/116
f 92/144/117 115/155/118 91/145/118
f 2/1/1 10/5/1 9/2/1
f 2/1/2 3/7/2 11/4/2
f 4/6/3 12/156/3 11/4/3
f 5/8/4 13/12/4 12/9/4
f 6/11/5 14/14/5 13/12/5
f 6/11/6 7/16/6 15/13/6
f 8/15/7 16/157/7 15/13/7
f 8/17/8 1/3/8 9/2/8
f 9/2/9 10/5/9 18/19/9
f 11/4/10 19/22/10 18/19/10
f 11/4/11 12/156/11 20/21/11
f 13/12/12 21/25/12 20/23/12
f 13/12/13 14/14/13 22/24/13
f 15/13/14 23/27/14 22/24/14
f 15/13/15 16/157/15 24/26/15
f 9/2/16 17/20/16 24/28/16
f 18/19/17 26/30/17 25/29/17
f 19/22/18 27/31/18 26/30/18
f 20/21/19 28/39/19 27/31/19
f 20/23/20 21/25/20 29/32/20
f 22/24/21 30/34/21 29/32/21
f 23/27/22 31/35/22 30/34/22
f 24/26/23 32/158/23 31/35/23
f 24/28/24 17/20/24 25/29/24
f 25/29/25 26/30/25 34/37/25
f 27/31/26 35/40/26 34/37/26
f 28/39/27 36/50/27 35/40/27
f 29/32/28 37/43/28 36/41/28
f 29/32/29 30/34/29 38/42/29
f 31/35/30 39/45/30 38/42/30
f 31/35/31 32/158/31 40/44/31
f 25/29/32 33/38/32 40/46/32
f 34/37/33 42/49/33 41/47/33
f 34/37/34 35/40/34 43/48/34
f 36/50/35 44/57/35 43/48/35
f 36/41/36 37/43/36 45/51/36
f 38/42/37 46/54/37 45/51/37
f 38/42/38 39/45/38 47/53/38
f 40/44/39 48/59/39 47/53/39
f 40/46/40 33/38/40 41/47/40
f 1/3/49 51/69/49 50/60/49
f 3/7/50 2/1/50 50/60/50
f 3/7/51 52/61/51 53/62/51
f 5/8/52 4/10/52 53/63/52
f 5/8/53 54/64/53 55/65/53
f 7/16/54 6/11/54 55/65/54
f 7/16/55 56/66/55 57/67/55
f 1/3/56 8/17/56 57/68/56
f 50/60/57 51/69/57 59/70/57
f 50/60/58 58/71/58 60/72/58
f 52/61/59 60/72/59 61/73/59
f 54/64/60 53/63/60 61/74/60
f 55/65/61 54/64/61 62/75/61
f 55/65/62 63/76/62 64/77/62
f 56/66/63 64/77/63 65/78/63
f 51/69/64 57/68/64 65/79/64
f 58/80/65 59/97/65 67/81/65
f 58/80/66 66/82/66 68/83/66
f 61/85/67 60/84/67 68/83/67
f 61/87/68 69/159/68 70/88/68
f 63/90/69 62/89/69 70/88/69
f 63/90/70 71/91/70 72/92/70
f 65/94/71 64/93/71 72/92/71
f 65/96/72 73/160/72 67/81/72
f 75/98/73 83/102/73 82/99/73
f 76/101/74 84/104/74 83/102/74
f 77/103/75 85/161/75 84/104/75
f 78/105/76 86/109/76 85/106/76
f 79/108/77 87/111/77 86/109/77
f 80/110/78 88/113/78 87/111/78
f 81/112/79 89/162/79 88/113/79
f 74/100/80 82/99/80 89/114/80
f 82/99/82 83/102/82 107/128/82
f 84/104/83 114/131/83 107/128/83
f 84/104/84 85/161/84 113/130/84
f 86/109/85 112/134/85 113/132/85
f 86/109/86 87/111/86 111/133/86
f 88/113/87 110/136/87 111/133/87
f 88/113/88 89/162/88 109/135/88
f 82/99/89 108/129/89 109/137/89
f 74/100/90 98/117/90 99/116/90
f 76/101/91 75/98/91 99/116/91
f 76/101/92 101/119/92 102/120/92
f 78/105/93 77/107/93 102/122/93
f 78/105/94 103/121/94 104/124/94
f 80/110/95 79/108/95 104/124/95
f 80/110/96 105/125/96 106/126/96
f 74/100/97 81/115/97 106/127/97
f 107/128/98 91/145/98 90/138/98
f 109/137/99 108/129/99 90/138/99
f 109/135/100 97/149/100 96/140/100
f 111/133/101 110/136/101 96/140/101
f 111/133/102 95/141/102 94/142/102
f 113/132/103 112/134/103 94/142/103
f 113/130/104 93/154/104 92/144/104
f 107/128/105 114/131/105 92/144/105
f 91/145/106 115/155/106 116/146/107
f 90/138/108 116/146/108 117/147/109
f 117/148/110 118/163/119 96/140/110
f 96/140/111 118/163/111 119/150/111
f 95/141/112 119/150/112 120/151/113
f 94/142/114 120/151/114 121/152/115
f 121/153/116 122/164/120 92/144/116
f 92/144/117 122/164/117 115/155/118
